<svg width="152" height="24" viewBox="0 0 152 24" xmlns="http://www.w3.org/2000/svg"><title>SwissPass_Wortmarke</title><g fill="#FFF" fill-rule="evenodd"><path d="M2.75 18.86a4.87 4.87 0 0 0 1.59 1.9 6.66 6.66 0 0 0 2.4 1 13.64 13.64 0 0 0 3 .31 8.36 8.36 0 0 0 2-.26 6.86 6.86 0 0 0 2-.82 5.05 5.05 0 0 0 1.53-1.45 3.69 3.69 0 0 0 .61-2.14 3.12 3.12 0 0 0-.44-1.67 4 4 0 0 0-1.13-1.19 6.62 6.62 0 0 0-1.53-.79 14.77 14.77 0 0 0-1.64-.5L5.93 12A15.13 15.13 0 0 1 4 11.36a5.56 5.56 0 0 1-1.66-1 4.83 4.83 0 0 1-1.15-1.61 5.4 5.4 0 0 1-.44-2.28 7.31 7.31 0 0 1 .32-2 5.42 5.42 0 0 1 1.21-2.09A7 7 0 0 1 4.71.69a9.72 9.72 0 0 1 4-.69 11.52 11.52 0 0 1 3.25.45 8 8 0 0 1 2.7 1.35A6.7 6.7 0 0 1 16.47 4a6.67 6.67 0 0 1 .69 3.11H15a5.36 5.36 0 0 0-.6-2.3A5.19 5.19 0 0 0 13 3.2a6.1 6.1 0 0 0-2-1 8 8 0 0 0-2.3-.33 9.54 9.54 0 0 0-2.17.24 5.42 5.42 0 0 0-1.83.77 4 4 0 0 0-1.27 1.4 4.4 4.4 0 0 0-.48 2.16c-.013.48.08.958.27 1.4a3 3 0 0 0 .76 1 4 4 0 0 0 1.11.68 8.28 8.28 0 0 0 1.34.42L12 11.33a16.5 16.5 0 0 1 2.3.79 7.61 7.61 0 0 1 1.9 1.16A4.86 4.86 0 0 1 17.51 15a5.7 5.7 0 0 1 .49 2.38 9.05 9.05 0 0 1-.08 1 5.22 5.22 0 0 1-.39 1.37 6.74 6.74 0 0 1-.87 1.46 5.43 5.43 0 0 1-1.54 1.34 8.92 8.92 0 0 1-2.43 1 14.19 14.19 0 0 1-3.47.37 14.44 14.44 0 0 1-3.77-.47 8.08 8.08 0 0 1-3-1.43 6.31 6.31 0 0 1-1.88-2.48A8.11 8.11 0 0 1 0 15.9h2.2a6.42 6.42 0 0 0 .55 3M40.73 6.86l-4.25 14.23h-.07L32.36 6.86h-2.29l-4.05 14.23h-.06L21.71 6.86h-2.16l5.34 16.6h2.22L31.17 9.5h.06l4.09 13.96h2.23l5.34-16.6zM45.23 23.47h2V6.86h-2v16.61zm0-19.73h2V.48h-2v3.26zM60.88 10.09a3.31 3.31 0 0 0-.95-1.14 4 4 0 0 0-1.37-.66 6.26 6.26 0 0 0-1.64-.21 6.68 6.68 0 0 0-1.37.15 4.17 4.17 0 0 0-1.27.48 2.77 2.77 0 0 0-.93.89 2.44 2.44 0 0 0-.35 1.34 1.89 1.89 0 0 0 .34 1.14 3 3 0 0 0 .85.79c.355.22.734.398 1.13.53.407.14.783.253 1.13.34l2.7.61a7.82 7.82 0 0 1 1.72.47 5.57 5.57 0 0 1 1.51.89 4.33 4.33 0 0 1 1.08 1.35 4.08 4.08 0 0 1 .42 1.9 4.17 4.17 0 0 1-.61 2.3 5 5 0 0 1-1.56 1.55 6.62 6.62 0 0 1-2.14.85 11.2 11.2 0 0 1-2.35.26 7.64 7.64 0 0 1-4.75-1.38 5.9 5.9 0 0 1-2.08-4.44h2a4 4 0 0 0 1.5 3.11 5.43 5.43 0 0 0 3.39 1 7.7 7.7 0 0 0 1.53-.16 5 5 0 0 0 1.46-.55 3.49 3.49 0 0 0 1.11-1c.3-.426.455-.939.44-1.46a2.33 2.33 0 0 0-.3-1.24 2.65 2.65 0 0 0-.82-.84 5.25 5.25 0 0 0-1.17-.56c-.44-.147-.887-.277-1.34-.39l-2.61-.58a14.92 14.92 0 0 1-1.83-.6 5.86 5.86 0 0 1-1.46-.84 3.55 3.55 0 0 1-1-1.22A4.06 4.06 0 0 1 51 11a4 4 0 0 1 .56-2.16A4.39 4.39 0 0 1 53 7.44a6.73 6.73 0 0 1 2-.81 9.8 9.8 0 0 1 2.2-.26 8.11 8.11 0 0 1 2.33.32 5.4 5.4 0 0 1 1.9 1 4.88 4.88 0 0 1 1.3 1.67 6 6 0 0 1 .55 2.35h-2a3.87 3.87 0 0 0-.39-1.63M76.52 10.09a3.3 3.3 0 0 0-.95-1.14 4 4 0 0 0-1.37-.66 6.26 6.26 0 0 0-1.64-.21 6.67 6.67 0 0 0-1.37.15 4.17 4.17 0 0 0-1.27.48 2.77 2.77 0 0 0-.93.89 2.44 2.44 0 0 0-.35 1.35c-.007.409.12.809.36 1.14a3 3 0 0 0 .85.79c.355.22.734.398 1.13.53.41.14.78.25 1.13.34l2.7.61a7.82 7.82 0 0 1 1.72.47 5.56 5.56 0 0 1 1.51.89 4.34 4.34 0 0 1 1.08 1.35c.29.59.435 1.242.42 1.9a4.16 4.16 0 0 1-.61 2.3 5 5 0 0 1-1.56 1.55 6.63 6.63 0 0 1-2.14.85c-.772.17-1.56.256-2.35.26a7.64 7.64 0 0 1-4.75-1.38A5.9 5.9 0 0 1 66 18.09h2a4 4 0 0 0 1.5 3.11 5.43 5.43 0 0 0 3.39 1 7.7 7.7 0 0 0 1.53-.16 5 5 0 0 0 1.46-.55 3.5 3.5 0 0 0 1.11-1 2.41 2.41 0 0 0 .43-1.46 2.33 2.33 0 0 0-.3-1.24 2.64 2.64 0 0 0-.82-.84 5.25 5.25 0 0 0-1.17-.56c-.44-.147-.887-.277-1.34-.39l-2.61-.58a14.86 14.86 0 0 1-1.83-.6 5.85 5.85 0 0 1-1.46-.84 3.55 3.55 0 0 1-1-1.22 4.06 4.06 0 0 1-.28-1.76 4 4 0 0 1 .56-2.16 4.39 4.39 0 0 1 1.47-1.45 6.73 6.73 0 0 1 2-.81 9.81 9.81 0 0 1 2.2-.26 8.11 8.11 0 0 1 2.33.32 5.39 5.39 0 0 1 1.9 1 4.87 4.87 0 0 1 1.3 1.67 6 6 0 0 1 .55 2.35h-2a3.87 3.87 0 0 0-.39-1.63M87.14 11.36H93a5.28 5.28 0 0 0 1.39-.19 3.92 3.92 0 0 0 1.3-.63 3.21 3.21 0 0 0 1-1.16 4 4 0 0 0 .37-1.82 4.72 4.72 0 0 0-.32-1.87 3 3 0 0 0-.87-1.17 3.05 3.05 0 0 0-1.25-.6 6.82 6.82 0 0 0-1.51-.16h-6l.03 7.6zM83.12.48h10.14a9.64 9.64 0 0 1 4 .71A6.27 6.27 0 0 1 99.63 3a6 6 0 0 1 1.14 2.32c.196.758.3 1.537.31 2.32a9.62 9.62 0 0 1-.31 2.3 6 6 0 0 1-1.14 2.3A6.14 6.14 0 0 1 97.25 14a9.83 9.83 0 0 1-4 .69h-6.11v8.82h-4L83.12.48zM113.25 15.13a4.43 4.43 0 0 1-2.06.66c-.81.08-1.63.19-2.44.34a7.82 7.82 0 0 0-1.13.27 3.39 3.39 0 0 0-1 .48 2.14 2.14 0 0 0-.66.8 2.82 2.82 0 0 0-.24 1.21c-.002.365.125.72.36 1 .233.278.523.504.85.66a3.82 3.82 0 0 0 1.09.34 6.63 6.63 0 0 0 1.08.1 6 6 0 0 0 1.32-.16 4.4 4.4 0 0 0 1.34-.55 3.52 3.52 0 0 0 1-1 2.49 2.49 0 0 0 .42-1.46l.07-2.69zm3.67 4.64a2 2 0 0 0 .18 1 .75.75 0 0 0 .69.29h.39a2.45 2.45 0 0 0 .51-.06v2.5l-.5.15-.63.14-.64.1h-.54a3.52 3.52 0 0 1-1.87-.45 2.24 2.24 0 0 1-1-1.58 6.47 6.47 0 0 1-2.69 1.55 10.57 10.57 0 0 1-3.08.48 7.51 7.51 0 0 1-2.15-.31 5.6 5.6 0 0 1-1.82-.9 4.28 4.28 0 0 1-1.25-1.51 4.65 4.65 0 0 1-.47-2.14 5 5 0 0 1 .56-2.51 4.14 4.14 0 0 1 1.51-1.52 6.72 6.72 0 0 1 2.06-.79c.76-.16 1.527-.283 2.3-.37a18.57 18.57 0 0 1 1.9-.27 9.08 9.08 0 0 0 1.59-.28 2.44 2.44 0 0 0 1.09-.59 1.64 1.64 0 0 0 .4-1.21 1.88 1.88 0 0 0-.34-1.16 2.24 2.24 0 0 0-.84-.69 3.53 3.53 0 0 0-1.11-.32 8.64 8.64 0 0 0-1.17-.05 4.61 4.61 0 0 0-2.54.64 2.51 2.51 0 0 0-1.13 2h-3.67a5.53 5.53 0 0 1 .77-2.67 5.31 5.31 0 0 1 1.72-1.71 7.1 7.1 0 0 1 2.36-.9c.893-.173 1.8-.26 2.71-.26.81.001 1.618.089 2.41.26a6.84 6.84 0 0 1 2.14.84A4.66 4.66 0 0 1 116.34 9a4.12 4.12 0 0 1 .58 2.24v8.53zM123.77 18.12a2.75 2.75 0 0 0 1.23 2.25 4.81 4.81 0 0 0 2.54.65 9.57 9.57 0 0 0 1.17-.08 5.12 5.12 0 0 0 1.24-.3 2.36 2.36 0 0 0 .95-.66 1.59 1.59 0 0 0 .34-1.14 1.63 1.63 0 0 0-.52-1.16 3.54 3.54 0 0 0-1.24-.72 11.94 11.94 0 0 0-1.72-.47l-2-.42a18.17 18.17 0 0 1-2-.55 6.44 6.44 0 0 1-1.71-.87 4 4 0 0 1-1.21-1.4 4.49 4.49 0 0 1-.45-2.11 3.79 3.79 0 0 1 .66-2.27 5.07 5.07 0 0 1 1.68-1.48A7.27 7.27 0 0 1 125 6.6a13.28 13.28 0 0 1 2.36-.23 10.73 10.73 0 0 1 2.46.28 6.68 6.68 0 0 1 2.13.88 5.24 5.24 0 0 1 1.58 1.6c.441.72.712 1.53.79 2.37h-3.83a2.28 2.28 0 0 0-1.21-1.77 5 5 0 0 0-2.17-.45 7.49 7.49 0 0 0-.92.07 4.18 4.18 0 0 0-1 .24 2.09 2.09 0 0 0-.79.51 1.23 1.23 0 0 0-.32.89 1.39 1.39 0 0 0 .47 1.09c.362.307.78.542 1.23.69.564.2 1.142.356 1.73.47l2 .42a24.8 24.8 0 0 1 2 .55 6.4 6.4 0 0 1 1.73.87 4 4 0 0 1 1.69 3.44 4.47 4.47 0 0 1-.68 2.51 5.4 5.4 0 0 1-1.76 1.67 7.91 7.91 0 0 1-2.4.93 12.16 12.16 0 0 1-2.61.29 11.42 11.42 0 0 1-2.92-.35 6.78 6.78 0 0 1-2.32-1.08 5.19 5.19 0 0 1-1.55-1.8 5.78 5.78 0 0 1-.6-2.56l3.68-.01zM140.64 18.12a2.76 2.76 0 0 0 1.22 2.25 4.8 4.8 0 0 0 2.54.65 9.59 9.59 0 0 0 1.18-.08 5.07 5.07 0 0 0 1.24-.3 2.36 2.36 0 0 0 1-.66 1.59 1.59 0 0 0 .34-1.14 1.63 1.63 0 0 0-.51-1.16 3.63 3.63 0 0 0-1.24-.72 12 12 0 0 0-1.72-.47l-2-.42a18 18 0 0 1-2-.55 6.36 6.36 0 0 1-1.71-.87 4 4 0 0 1-1.21-1.4 4.44 4.44 0 0 1-.45-2.11 3.79 3.79 0 0 1 .68-2.27 5.06 5.06 0 0 1 1.67-1.48 7.31 7.31 0 0 1 2.25-.79 13.33 13.33 0 0 1 2.37-.23 10.78 10.78 0 0 1 2.46.28 6.68 6.68 0 0 1 2.12.88 5.18 5.18 0 0 1 1.58 1.6c.44.72.71 1.53.79 2.37h-3.84a2.29 2.29 0 0 0-1.21-1.77 5 5 0 0 0-2.19-.46 7.49 7.49 0 0 0-.92.07 4.18 4.18 0 0 0-1 .24 2.11 2.11 0 0 0-.79.51 1.23 1.23 0 0 0-.29.91 1.4 1.4 0 0 0 .47 1.09 3.65 3.65 0 0 0 1.23.69c.56.2 1.136.357 1.72.47l2 .42c.67.15 1.33.33 2 .55.617.2 1.2.494 1.73.87a4.21 4.21 0 0 1 1.23 1.38 4.14 4.14 0 0 1 .47 2.06 4.45 4.45 0 0 1-.68 2.51 5.36 5.36 0 0 1-1.76 1.67 8 8 0 0 1-2.4.93 12.19 12.19 0 0 1-2.61.29 11.4 11.4 0 0 1-2.92-.35 6.8 6.8 0 0 1-2.32-1.08 5.18 5.18 0 0 1-1.55-1.8 5.7 5.7 0 0 1-.6-2.56l3.63-.02z"/></g></svg>